<?xml version="1.0" encoding="iso-8859-1"?>
<!-- Generator: Adobe Illustrator 18.0.0, SVG Export Plug-In . SVG Version: 6.00 Build 0)  -->
<!DOCTYPE svg PUBLIC "-//W3C//DTD SVG 1.1//EN" "http://www.w3.org/Graphics/SVG/1.1/DTD/svg11.dtd">
<svg version="1.1" id="Capa_1" xmlns="http://www.w3.org/2000/svg" xmlns:xlink="http://www.w3.org/1999/xlink" x="0px" y="0px"
	 viewBox="0 0 494.059 494.059" style="enable-background:new 0 0 494.059 494.059;" xml:space="preserve">
<path d="M94.292,300.572c1.168,11.504,7.392,21.822,16.25,28.791c-4.958,5.834-7.959,13.379-7.959,21.616v30.571
	c0,13.31,7.682,24.774,18.941,30.161c-0.638,3.076-0.976,6.26-0.976,9.523c0,25.815,21.002,46.817,46.817,46.817
	c25.815,0,46.817-21.002,46.817-46.817c0-2.116-0.155-4.196-0.428-6.238h77.006c-0.273,2.042-0.428,4.122-0.428,6.238
	c0,25.815,21.002,46.817,46.817,46.817c25.815,0,46.817-21.002,46.817-46.817c0-25.815-21.002-46.817-46.817-46.817
	c-15.66,0-29.538,7.736-38.041,19.579h-93.701c-8.504-11.843-22.382-19.579-38.042-19.579c-15.045,0-28.446,7.142-37.017,18.204
	c-4.032-2.058-6.766-6.232-6.766-11.07V350.98c0-6.858,5.583-12.437,12.446-12.437c0.032,0,0.063-0.004,0.095-0.005
	c0.064,0.001,0.127,0.005,0.191,0.005h245.5c20.298,0,41.324-15.049,47.868-34.261l62.384-183.173
	c3.53-10.364,2.329-20.814-3.296-28.671c-5.625-7.857-15.129-12.364-26.078-12.364h-350.47c-6.752,0-13.114,1.725-18.63,4.959
	l-4.958-49.57c-0.537-5.368-5.053-9.455-10.448-9.455H10.5c-5.799,0-10.5,4.701-10.5,10.5s4.701,10.5,10.5,10.5h58.187
	L94.292,300.572z M337.151,395.417c14.236,0,25.817,11.581,25.817,25.817c0,14.235-11.582,25.817-25.817,25.817
	c-14.235,0-25.817-11.582-25.817-25.817C311.334,406.999,322.915,395.417,337.151,395.417z M167.366,395.417
	c14.236,0,25.817,11.581,25.817,25.817c0,14.235-11.582,25.817-25.817,25.817c-14.235,0-25.817-11.582-25.817-25.817
	C141.549,406.999,153.131,395.417,167.366,395.417z M472.189,114.339l-62.384,183.173c-3.634,10.671-16.713,20.031-27.989,20.031
	h-245.5c-10.403,0-20.08-8.743-21.131-19.09l-3.709-36.594h234.803c5.799,0,10.5-4.701,10.5-10.5c0-5.799-4.701-10.5-10.5-10.5
	H109.347L96.919,118.264c-0.475-4.672,0.878-9.03,3.808-12.274c2.865-3.171,6.949-4.917,11.498-4.917h350.47
	c4.149,0,7.346,1.274,9.001,3.587C473.352,106.974,473.527,110.411,472.189,114.339z"/>
<g>
</g>
<g>
</g>
<g>
</g>
<g>
</g>
<g>
</g>
<g>
</g>
<g>
</g>
<g>
</g>
<g>
</g>
<g>
</g>
<g>
</g>
<g>
</g>
<g>
</g>
<g>
</g>
<g>
</g>
</svg>
