<svg height="512" viewBox="0 0 512 512" width="512" xmlns="http://www.w3.org/2000/svg"><g><g><path d="m88 40h336v456h-336z" fill="#57565c"/><path d="m112 64h288v408h-288z" fill="#e0e0e2"/><rect fill="#a0815c" height="144" rx="8" width="144" x="48" y="352"/><path d="m144 416-24-16-24 16v-64h48z" fill="#ffda44"/><path d="m72 448h24v24h-24z" fill="#ff9811"/><path d="m184 40h144a0 0 0 0 1 0 0v48a16 16 0 0 1 -16 16h-112a16 16 0 0 1 -16-16v-48a0 0 0 0 1 0 0z" fill="#ff9811"/><path d="m248 16h16a16 16 0 0 1 16 16v8a0 0 0 0 1 0 0h-48a0 0 0 0 1 0 0v-8a16 16 0 0 1 16-16z" fill="#ffda44"/></g><g><path d="m96 440h-24a8 8 0 0 0 -8 8v24a8 8 0 0 0 8 8h24a8 8 0 0 0 8-8v-24a8 8 0 0 0 -8-8zm-8 24h-8v-8h8z"/><path d="m144 440h-24a8 8 0 0 0 0 16h24a8 8 0 0 0 0-16z"/><path d="m128 464h-8a8 8 0 0 0 0 16h8a8 8 0 0 0 0-16z"/><path d="m424 32h-136a24.032 24.032 0 0 0 -24-24h-16a24.032 24.032 0 0 0 -24 24h-136a8 8 0 0 0 -8 8v304h-24a16.021 16.021 0 0 0 -16 16v128a16.021 16.021 0 0 0 16 16h128a16.051 16.051 0 0 0 4.72-.71 7.978 7.978 0 0 0 3.28.71h232a8 8 0 0 0 8-8v-456a8 8 0 0 0 -8-8zm-176-8h16a8.011 8.011 0 0 1 8 8h-32a8.011 8.011 0 0 1 8-8zm-56 24h128v40a8.011 8.011 0 0 1 -8 8h-112a8.011 8.011 0 0 1 -8-8zm-96 0h80v8h-64a8 8 0 0 0 -8 8v280h-8zm40 312v41.05l-11.56-7.71a8.026 8.026 0 0 0 -8.88 0l-11.56 7.71v-41.05zm48.01 112.17v15.83h-128.01v-128h28.13a7.933 7.933 0 0 0 3.87 1v55a8.009 8.009 0 0 0 12.44 6.66l19.56-13.05 19.56 13.05a8.026 8.026 0 0 0 4.44 1.34 8.015 8.015 0 0 0 8-8v-56h32l.01 111.83c0 .06-.01.11-.01.17s.01.11.01.17zm-.01-128.17h-64v-272h56v16a24.032 24.032 0 0 0 24 24h112a24.032 24.032 0 0 0 24-24v-16h56v392h-192v-104a16.021 16.021 0 0 0 -16-16zm232 144h-216v-8h200a8 8 0 0 0 8-8v-408a8 8 0 0 0 -8-8h-64v-8h80z"/><path d="m160 192h192a8 8 0 0 0 0-16h-192a8 8 0 0 0 0 16z"/><path d="m160 216h192a8 8 0 0 0 0-16h-192a8 8 0 0 0 0 16z"/><path d="m160 240h192a8 8 0 0 0 0-16h-192a8 8 0 0 0 0 16z"/><path d="m232 256a8 8 0 0 0 -8-8h-64a8 8 0 0 0 0 16h64a8 8 0 0 0 8-8z"/><path d="m256 248h-8a8 8 0 0 0 0 16h8a8 8 0 0 0 0-16z"/></g></g></svg>